<mxfile host="app.diagrams.net" modified="2023-09-05T23:07:56.161Z" agent="Mozilla/5.0 (Windows NT 10.0; Win64; x64) AppleWebKit/537.36 (KHTML, like Gecko) Chrome/116.0.0.0 Safari/537.36 Edg/116.0.1938.69" etag="to4PaS5GKY5KgldQuDBc" version="21.7.2" type="device">
  <diagram name="Page-1" id="FqmYLrgDgRbD_6B94eGz">
    <mxGraphModel dx="1386" dy="785" grid="0" gridSize="10" guides="1" tooltips="1" connect="1" arrows="1" fold="1" page="1" pageScale="1" pageWidth="850" pageHeight="1100" math="0" shadow="0">
      <root>
        <mxCell id="0" />
        <mxCell id="1" parent="0" />
        <mxCell id="zV_lEULl3sPfX8MFJKhQ-5" style="edgeStyle=orthogonalEdgeStyle;rounded=0;orthogonalLoop=1;jettySize=auto;html=1;exitX=1;exitY=0.5;exitDx=0;exitDy=0;" edge="1" parent="1" source="zV_lEULl3sPfX8MFJKhQ-1" target="zV_lEULl3sPfX8MFJKhQ-4">
          <mxGeometry relative="1" as="geometry">
            <Array as="points">
              <mxPoint x="220" y="94" />
              <mxPoint x="220" y="94" />
            </Array>
          </mxGeometry>
        </mxCell>
        <mxCell id="zV_lEULl3sPfX8MFJKhQ-1" value="Quiz App Launched" style="ellipse;whiteSpace=wrap;html=1;" vertex="1" parent="1">
          <mxGeometry x="56" y="54" width="120" height="80" as="geometry" />
        </mxCell>
        <mxCell id="zV_lEULl3sPfX8MFJKhQ-3" value="Quiz App Logic" style="text;html=1;strokeColor=none;fillColor=none;align=center;verticalAlign=middle;whiteSpace=wrap;rounded=0;fontSize=20;" vertex="1" parent="1">
          <mxGeometry x="7" y="10" width="218" height="30" as="geometry" />
        </mxCell>
        <mxCell id="zV_lEULl3sPfX8MFJKhQ-8" style="edgeStyle=orthogonalEdgeStyle;rounded=0;orthogonalLoop=1;jettySize=auto;html=1;exitX=1;exitY=0.5;exitDx=0;exitDy=0;entryX=0;entryY=0.5;entryDx=0;entryDy=0;" edge="1" parent="1" source="zV_lEULl3sPfX8MFJKhQ-4" target="zV_lEULl3sPfX8MFJKhQ-6">
          <mxGeometry relative="1" as="geometry" />
        </mxCell>
        <mxCell id="zV_lEULl3sPfX8MFJKhQ-4" value="Display home screen" style="rounded=0;whiteSpace=wrap;html=1;" vertex="1" parent="1">
          <mxGeometry x="254" y="64" width="120" height="60" as="geometry" />
        </mxCell>
        <mxCell id="zV_lEULl3sPfX8MFJKhQ-10" style="edgeStyle=orthogonalEdgeStyle;rounded=0;orthogonalLoop=1;jettySize=auto;html=1;exitX=0.5;exitY=1;exitDx=0;exitDy=0;" edge="1" parent="1" source="zV_lEULl3sPfX8MFJKhQ-6" target="zV_lEULl3sPfX8MFJKhQ-9">
          <mxGeometry relative="1" as="geometry" />
        </mxCell>
        <mxCell id="zV_lEULl3sPfX8MFJKhQ-6" value="answer questions" style="rounded=0;whiteSpace=wrap;html=1;" vertex="1" parent="1">
          <mxGeometry x="483" y="63" width="120" height="64" as="geometry" />
        </mxCell>
        <mxCell id="zV_lEULl3sPfX8MFJKhQ-11" style="edgeStyle=orthogonalEdgeStyle;rounded=0;orthogonalLoop=1;jettySize=auto;html=1;exitX=0.5;exitY=1;exitDx=0;exitDy=0;" edge="1" parent="1" source="zV_lEULl3sPfX8MFJKhQ-9">
          <mxGeometry relative="1" as="geometry">
            <mxPoint x="544" y="323" as="targetPoint" />
          </mxGeometry>
        </mxCell>
        <mxCell id="zV_lEULl3sPfX8MFJKhQ-18" style="edgeStyle=orthogonalEdgeStyle;rounded=0;orthogonalLoop=1;jettySize=auto;html=1;exitX=1;exitY=0.5;exitDx=0;exitDy=0;entryX=0;entryY=0.5;entryDx=0;entryDy=0;" edge="1" parent="1" source="zV_lEULl3sPfX8MFJKhQ-9" target="zV_lEULl3sPfX8MFJKhQ-13">
          <mxGeometry relative="1" as="geometry" />
        </mxCell>
        <mxCell id="zV_lEULl3sPfX8MFJKhQ-27" style="edgeStyle=orthogonalEdgeStyle;rounded=0;orthogonalLoop=1;jettySize=auto;html=1;exitX=0;exitY=0;exitDx=0;exitDy=0;entryX=1;entryY=0.25;entryDx=0;entryDy=0;" edge="1" parent="1" source="zV_lEULl3sPfX8MFJKhQ-9" target="zV_lEULl3sPfX8MFJKhQ-24">
          <mxGeometry relative="1" as="geometry" />
        </mxCell>
        <mxCell id="zV_lEULl3sPfX8MFJKhQ-9" value="gets question right" style="rhombus;whiteSpace=wrap;html=1;" vertex="1" parent="1">
          <mxGeometry x="473" y="180" width="142" height="80" as="geometry" />
        </mxCell>
        <mxCell id="zV_lEULl3sPfX8MFJKhQ-13" value="false" style="rounded=0;whiteSpace=wrap;html=1;" vertex="1" parent="1">
          <mxGeometry x="685" y="206" width="63" height="28" as="geometry" />
        </mxCell>
        <mxCell id="zV_lEULl3sPfX8MFJKhQ-23" style="edgeStyle=orthogonalEdgeStyle;rounded=0;orthogonalLoop=1;jettySize=auto;html=1;exitX=0.5;exitY=1;exitDx=0;exitDy=0;" edge="1" parent="1" source="zV_lEULl3sPfX8MFJKhQ-15" target="zV_lEULl3sPfX8MFJKhQ-22">
          <mxGeometry relative="1" as="geometry" />
        </mxCell>
        <mxCell id="zV_lEULl3sPfX8MFJKhQ-15" value="true" style="rounded=0;whiteSpace=wrap;html=1;" vertex="1" parent="1">
          <mxGeometry x="511.5" y="321" width="63" height="28" as="geometry" />
        </mxCell>
        <mxCell id="zV_lEULl3sPfX8MFJKhQ-20" value="" style="curved=1;endArrow=classic;html=1;rounded=0;" edge="1" parent="1" source="zV_lEULl3sPfX8MFJKhQ-9">
          <mxGeometry width="50" height="50" relative="1" as="geometry">
            <mxPoint x="421" y="269" as="sourcePoint" />
            <mxPoint x="475" y="219" as="targetPoint" />
            <Array as="points">
              <mxPoint x="475" y="269" />
              <mxPoint x="425" y="219" />
            </Array>
          </mxGeometry>
        </mxCell>
        <mxCell id="zV_lEULl3sPfX8MFJKhQ-21" value="for each question" style="text;html=1;strokeColor=none;fillColor=none;align=center;verticalAlign=middle;whiteSpace=wrap;rounded=0;" vertex="1" parent="1">
          <mxGeometry x="436" y="222" width="60" height="30" as="geometry" />
        </mxCell>
        <mxCell id="zV_lEULl3sPfX8MFJKhQ-22" value="score+=10" style="rounded=0;whiteSpace=wrap;html=1;" vertex="1" parent="1">
          <mxGeometry x="496" y="418" width="99" height="43" as="geometry" />
        </mxCell>
        <mxCell id="zV_lEULl3sPfX8MFJKhQ-24" value="display score" style="shape=parallelogram;perimeter=parallelogramPerimeter;whiteSpace=wrap;html=1;fixedSize=1;" vertex="1" parent="1">
          <mxGeometry x="250" y="198" width="120" height="60" as="geometry" />
        </mxCell>
      </root>
    </mxGraphModel>
  </diagram>
</mxfile>
